<?xml version="1.0" encoding="UTF-8" standalone="no"?>
<!-- Created with Inkscape (http://www.inkscape.org/) -->

<svg
   xmlns:dc="http://purl.org/dc/elements/1.1/"
   xmlns:cc="http://creativecommons.org/ns#"
   xmlns:rdf="http://www.w3.org/1999/02/22-rdf-syntax-ns#"
   xmlns:svg="http://www.w3.org/2000/svg"
   xmlns="http://www.w3.org/2000/svg"
   xmlns:sodipodi="http://sodipodi.sourceforge.net/DTD/sodipodi-0.dtd"
   xmlns:inkscape="http://www.inkscape.org/namespaces/inkscape"
   sodipodi:docname="heal.svg"
   height="15.857062"
   id="svg7384"
   inkscape:version="0.92.2 (5c3e80d, 2017-08-06)"
   version="1.1"
   width="16">
  <metadata
     id="metadata90">
    <rdf:RDF>
      <cc:Work
         rdf:about="">
        <dc:format>image/svg+xml</dc:format>
        <dc:type
           rdf:resource="http://purl.org/dc/dcmitype/StillImage" />
        <dc:title>Gnome Symbolic Icon Theme</dc:title>
      </cc:Work>
    </rdf:RDF>
  </metadata>
  <sodipodi:namedview
     inkscape:bbox-nodes="true"
     inkscape:bbox-paths="true"
     bordercolor="#666666"
     borderopacity="1"
     inkscape:current-layer="layer9"
     inkscape:cx="-1.211105"
     inkscape:cy="4.1414291"
     gridtolerance="10"
     inkscape:guide-bbox="true"
     guidetolerance="10"
     id="namedview88"
     inkscape:object-nodes="false"
     inkscape:object-paths="false"
     objecttolerance="10"
     pagecolor="#433342"
     inkscape:pageopacity="1"
     inkscape:pageshadow="2"
     showborder="false"
     showgrid="true"
     showguides="true"
     inkscape:snap-bbox="true"
     inkscape:snap-bbox-midpoints="false"
     inkscape:snap-global="true"
     inkscape:snap-grids="true"
     inkscape:snap-nodes="true"
     inkscape:snap-others="false"
     inkscape:snap-page="false"
     inkscape:snap-to-guides="true"
     inkscape:window-height="715"
     inkscape:window-maximized="1"
     inkscape:window-width="1366"
     inkscape:window-x="0"
     inkscape:window-y="28"
     inkscape:zoom="16">
    <inkscape:grid
       empspacing="2"
       enabled="true"
       id="grid4866"
       snapvisiblegridlinesonly="true"
       spacingx="1"
       spacingy="1"
       type="xygrid"
       visible="true"
       originx="9.6137922e-06"
       originy="4.5109108e-06" />
  </sodipodi:namedview>
  <title
     id="title9167">Gnome Symbolic Icon Theme</title>
  <defs
     id="defs7386" />
  <g
     inkscape:groupmode="layer"
     id="layer9"
     inkscape:label="tools"
     style="display:inline"
     transform="translate(-101.00019,-197.14295)">
    <path
       inkscape:connector-curvature="0"
       d="m 109.46108,197.68761 c -0.24546,0.20275 -0.46377,0.46264 -0.61873,0.76555 l -5.30095,10.33386 c -0.6199,1.21137 -0.1229,2.70579 1.10071,3.35341 l 1.07615,0.56312 c 1.2236,0.64763 2.6998,0.20024 3.31971,-1.01116 l 5.30096,-10.33385 c 0.61989,-1.2114 0.1229,-2.70581 -1.10072,-3.35344 l -1.07615,-0.56311 c -0.9177,-0.48572 -1.96468,-0.36274 -2.70098,0.24562 z m -1.67369,5.05767 c 0.37519,-0.27795 0.92272,-0.20669 1.20916,0.15742 0.28643,0.36406 0.21298,0.89539 -0.16222,1.17335 -0.3752,0.27794 -0.92273,0.20667 -1.20917,-0.15742 -0.28643,-0.36409 -0.21299,-0.8954 0.16223,-1.17335 z m -1.13056,2.24178 c 0.3752,-0.27797 0.92273,-0.2067 1.20918,0.1574 0.28642,0.36409 0.21298,0.8954 -0.16222,1.17335 -0.3752,0.27793 -0.92273,0.20667 -1.20917,-0.15741 -0.28644,-0.36408 -0.21299,-0.8954 0.16221,-1.17334 z m 3.44075,-1.14473 c 0.37519,-0.27794 0.92273,-0.20667 1.20918,0.15742 0.28643,0.36407 0.21299,0.89539 -0.16222,1.17334 -0.3752,0.27796 -0.92273,0.2067 -1.20916,-0.15741 -0.28645,-0.36408 -0.213,-0.89539 0.1622,-1.17335 z m -1.13053,2.24177 c 0.3752,-0.27794 0.92272,-0.20668 1.20917,0.15742 0.28643,0.36406 0.21299,0.89539 -0.16221,1.17333 -0.37521,0.27796 -0.92275,0.2067 -1.20919,-0.15741 -0.28644,-0.36407 -0.213,-0.89539 0.16223,-1.17334 z"
       id="path82132"
       style="display:inline;fill:#b3b3b3;fill-opacity:1;stroke:none;stroke-width:0.49880701" />
    <path
       inkscape:connector-curvature="0"
       d="m 103.95007,199.40825 c -0.956,-0.0398 -1.83084,0.49337 -2.24056,1.4512 l -0.4979,1.13264 c -0.54631,1.27713 4.5e-4,2.79823 1.24475,3.39795 l 0.99581,0.46014 2.774,-5.55706 -1.31587,-0.63711 c -0.31108,-0.14986 -0.64157,-0.23486 -0.96023,-0.24776 z m 10.56259,4.84914 -2.80958,5.55705 1.38701,0.67251 c 1.24429,0.59967 2.65447,0.0736 3.20078,-1.20344 l 0.4979,-1.13264 c 0.54633,-1.2771 -4.4e-4,-2.79827 -1.24475,-3.39795 z"
       id="path82165"
       style="display:inline;opacity:0.5;fill:#b3b3b3;fill-opacity:1;stroke:none;stroke-width:0.49880701" />
  </g>
</svg>
