<?xml version="1.0" encoding="UTF-8" standalone="no"?>
<!-- Created with Inkscape (http://www.inkscape.org/) -->

<svg
   xmlns:dc="http://purl.org/dc/elements/1.1/"
   xmlns:cc="http://creativecommons.org/ns#"
   xmlns:rdf="http://www.w3.org/1999/02/22-rdf-syntax-ns#"
   xmlns:svg="http://www.w3.org/2000/svg"
   xmlns="http://www.w3.org/2000/svg"
   xmlns:sodipodi="http://sodipodi.sourceforge.net/DTD/sodipodi-0.dtd"
   xmlns:inkscape="http://www.inkscape.org/namespaces/inkscape"
   sodipodi:docname="ink.svg"
   height="15.86667"
   id="svg7384"
   inkscape:version="0.92.2 (5c3e80d, 2017-08-06)"
   version="1.1"
   width="15.999997">
  <metadata
     id="metadata90">
    <rdf:RDF>
      <cc:Work
         rdf:about="">
        <dc:format>image/svg+xml</dc:format>
        <dc:type
           rdf:resource="http://purl.org/dc/dcmitype/StillImage" />
        <dc:title>Gnome Symbolic Icon Theme</dc:title>
      </cc:Work>
    </rdf:RDF>
  </metadata>
  <sodipodi:namedview
     inkscape:bbox-nodes="true"
     inkscape:bbox-paths="true"
     bordercolor="#666666"
     borderopacity="1"
     inkscape:current-layer="layer9"
     inkscape:cx="4.9906702"
     inkscape:cy="8.5750154"
     gridtolerance="10"
     inkscape:guide-bbox="true"
     guidetolerance="10"
     id="namedview88"
     inkscape:object-nodes="false"
     inkscape:object-paths="false"
     objecttolerance="10"
     pagecolor="#433342"
     inkscape:pageopacity="1"
     inkscape:pageshadow="2"
     showborder="false"
     showgrid="false"
     showguides="true"
     inkscape:snap-bbox="true"
     inkscape:snap-bbox-midpoints="false"
     inkscape:snap-global="true"
     inkscape:snap-grids="true"
     inkscape:snap-nodes="true"
     inkscape:snap-others="false"
     inkscape:snap-page="false"
     inkscape:snap-to-guides="true"
     inkscape:window-height="715"
     inkscape:window-maximized="1"
     inkscape:window-width="1366"
     inkscape:window-x="0"
     inkscape:window-y="28"
     inkscape:zoom="11.313708">
    <inkscape:grid
       empspacing="2"
       enabled="true"
       id="grid4866"
       originx="80.043375"
       originy="-40"
       snapvisiblegridlinesonly="true"
       spacingx="1"
       spacingy="1"
       type="xygrid"
       visible="true" />
  </sodipodi:namedview>
  <title
     id="title9167">Gnome Symbolic Icon Theme</title>
  <defs
     id="defs7386" />
  <g
     inkscape:groupmode="layer"
     id="layer9"
     inkscape:label="tools"
     style="display:inline"
     transform="translate(-160.95683,-177.13333)">
    <path
       inkscape:connector-curvature="0"
       d="m 169.96487,184.075 c -0.55184,0 -0.99609,0.25242 -0.99609,0.55781 v 0.86771 c 0,0.30538 0.44425,0.55782 0.99609,0.55782 h -1.99218 c -0.54946,0 -1.0981,0.5261 -0.96497,1.14661 l 0.96497,4.64844 c 0.13311,0.6205 0.44667,1.14661 0.99609,1.14661 h 5.97656 c 0.54944,0 0.86299,-0.52611 0.9961,-1.14661 l 0.99609,-4.64844 c 0.13311,-0.62051 -0.44665,-1.14661 -0.99609,-1.14661 h -1.99219 c 0.55184,0 0.99609,-0.25244 0.99609,-0.55782 v -0.86771 c 0,-0.30539 -0.44425,-0.55781 -0.99609,-0.55781 z"
       id="rect18742"
       style="fill:#b3b3b3;fill-opacity:1;stroke:none;stroke-width:0.49888757" />
    <path
       inkscape:connector-curvature="0"
       d="m 167.97269,177.13333 c 0,0 -1.28964,0.17534 -2.65625,0.99166 -3.32031,1.98334 -4.31641,5.43366 -4.31641,6.94168 -0.34241,4.05963 1.46302,4.95833 1.46302,4.95833 0.0933,1.98333 0.52917,2.975 0.52917,2.975 0.9961,-0.99167 0.9961,-0.99167 0.9961,-0.99167 0,0 -0.9961,-2.47917 0.99608,-2.975 -0.49804,-4.95833 -0.10378,-8.925 2.98829,-11.9 z"
       id="path23470"
       sodipodi:nodetypes="cscccccc"
       style="fill:#b3b3b3;fill-opacity:1;stroke:none;stroke-width:0.49888757" />
  </g>
  <g
     inkscape:groupmode="layer"
     id="layer10"
     inkscape:label="preferences"
     transform="translate(80.043375,39.86667)" />
  <g
     inkscape:groupmode="layer"
     id="layer1"
     inkscape:label="stock"
     transform="translate(80.043375,39.86667)" />
</svg>
