<?xml version="1.0" encoding="UTF-8" standalone="no"?>
<!-- Generator: Adobe Illustrator 19.0.0, SVG Export Plug-In . SVG Version: 6.00 Build 0)  -->

<svg
   xmlns:dc="http://purl.org/dc/elements/1.1/"
   xmlns:cc="http://creativecommons.org/ns#"
   xmlns:rdf="http://www.w3.org/1999/02/22-rdf-syntax-ns#"
   xmlns:svg="http://www.w3.org/2000/svg"
   xmlns="http://www.w3.org/2000/svg"
   xmlns:sodipodi="http://sodipodi.sourceforge.net/DTD/sodipodi-0.dtd"
   xmlns:inkscape="http://www.inkscape.org/namespaces/inkscape"
   version="1.1"
   id="Layer_1"
   x="0px"
   y="0px"
   viewBox="0 0 14.976795 16.604997"
   xml:space="preserve"
   sodipodi:docname="layers.svg"
   width="14.976795"
   height="16.604998"
   inkscape:version="0.92.2 (5c3e80d, 2017-08-06)"><metadata
     id="metadata61"><rdf:RDF><cc:Work
         rdf:about=""><dc:format>image/svg+xml</dc:format><dc:type
           rdf:resource="http://purl.org/dc/dcmitype/StillImage" /></cc:Work></rdf:RDF></metadata><defs
     id="defs59" /><sodipodi:namedview
     pagecolor="#ffffff"
     bordercolor="#666666"
     borderopacity="1"
     objecttolerance="10"
     gridtolerance="10"
     guidetolerance="10"
     inkscape:pageopacity="0"
     inkscape:pageshadow="2"
     inkscape:window-width="1366"
     inkscape:window-height="715"
     id="namedview57"
     showgrid="false"
     inkscape:zoom="7.375"
     inkscape:cx="6.5939523"
     inkscape:cy="10.543114"
     inkscape:window-x="0"
     inkscape:window-y="28"
     inkscape:window-maximized="1"
     inkscape:current-layer="Layer_1" /><g
     id="g894"
     transform="scale(0.04328671)"
     style="fill:#b3b3b3;fill-opacity:1"><g
       style="fill:#b3b3b3;fill-opacity:1"
       transform="translate(-0.26236162)"
       id="g12"><g
         style="fill:#b3b3b3;fill-opacity:1"
         id="g10"><path
           style="fill:#b3b3b3;fill-opacity:1"
           inkscape:connector-curvature="0"
           id="path8"
           d="m 341.941,119.343 h -81.674 c -1.134,0 -2.216,0.452 -3.018,1.245 l -40.125,40.125 c -0.793,0.801 -1.884,1.253 -3.009,1.253 H 98.336 c -1.134,0 -2.191,0.418 -2.992,1.228 -9.454,9.556 -72.237,72.254 -93.821,93.804 -2.694,2.685 -0.776,7.263 3.026,7.263 h 201.025 c 1.142,0 2.233,-0.46 3.035,-1.27 l 40.491,-41.054 0.017,-0.017 95.833,-95.296 c 2.694,-2.677 0.793,-7.281 -3.009,-7.281 z" /></g></g><g
       style="fill:#b3b3b3;fill-opacity:1"
       transform="translate(-0.26236162)"
       id="g18"><g
         style="fill:#b3b3b3;fill-opacity:1"
         id="g16"><path
           style="fill:#b3b3b3;fill-opacity:1"
           inkscape:connector-curvature="0"
           id="path14"
           d="M 341.984,0 H 142.34 c -1.125,0 -2.199,0.443 -3.001,1.236 L 1.608,137.628 c -2.711,2.677 -0.81,7.288 3.001,7.288 h 200.983 c 1.134,0 2.216,-0.452 3.018,-1.245 L 345.002,7.28 C 347.678,4.595 345.777,0 341.984,0 Z" /></g></g><g
       style="fill:#b3b3b3;fill-opacity:1"
       transform="translate(-0.26236162)"
       id="g24"><g
         style="fill:#b3b3b3;fill-opacity:1"
         id="g22"><path
           style="fill:#b3b3b3;fill-opacity:1"
           inkscape:connector-curvature="0"
           id="path20"
           d="m 341.984,238.687 h -81.716 c -1.134,0 -2.216,0.452 -3.018,1.245 l -40.125,40.125 c -0.793,0.801 -1.884,1.253 -3.009,1.253 H 98.302 c -1.134,0 -2.216,0.452 -3.018,1.245 l -93.77,93.77 c -2.677,2.685 -0.776,7.28 3.018,7.28 h 201.059 c 1.134,0 2.216,-0.452 3.018,-1.245 L 345.001,245.968 c 2.677,-2.687 0.776,-7.281 -3.017,-7.281 z" /></g></g></g><g
     id="g26"
     transform="matrix(1.0640819,0,0,1.0640819,-0.27917426,-391.58215)"
     style="fill:#b3b3b3;fill-opacity:1" /><g
     id="g28"
     transform="matrix(1.0640819,0,0,1.0640819,-0.27917426,-391.58215)"
     style="fill:#b3b3b3;fill-opacity:1" /><g
     id="g30"
     transform="matrix(1.0640819,0,0,1.0640819,-0.27917426,-391.58215)"
     style="fill:#b3b3b3;fill-opacity:1" /><g
     id="g32"
     transform="matrix(1.0640819,0,0,1.0640819,-0.27917426,-391.58215)"
     style="fill:#b3b3b3;fill-opacity:1" /><g
     id="g34"
     transform="matrix(1.0640819,0,0,1.0640819,-0.27917426,-391.58215)"
     style="fill:#b3b3b3;fill-opacity:1" /><g
     id="g36"
     transform="matrix(1.0640819,0,0,1.0640819,-0.27917426,-391.58215)"
     style="fill:#b3b3b3;fill-opacity:1" /><g
     id="g38"
     transform="matrix(1.0640819,0,0,1.0640819,-0.27917426,-391.58215)"
     style="fill:#b3b3b3;fill-opacity:1" /><g
     id="g40"
     transform="matrix(1.0640819,0,0,1.0640819,-0.27917426,-391.58215)"
     style="fill:#b3b3b3;fill-opacity:1" /><g
     id="g42"
     transform="matrix(1.0640819,0,0,1.0640819,-0.27917426,-391.58215)"
     style="fill:#b3b3b3;fill-opacity:1" /><g
     id="g44"
     transform="matrix(1.0640819,0,0,1.0640819,-0.27917426,-391.58215)"
     style="fill:#b3b3b3;fill-opacity:1" /><g
     id="g46"
     transform="matrix(1.0640819,0,0,1.0640819,-0.27917426,-391.58215)"
     style="fill:#b3b3b3;fill-opacity:1" /><g
     id="g48"
     transform="matrix(1.0640819,0,0,1.0640819,-0.27917426,-391.58215)"
     style="fill:#b3b3b3;fill-opacity:1" /><g
     id="g50"
     transform="matrix(1.0640819,0,0,1.0640819,-0.27917426,-391.58215)"
     style="fill:#b3b3b3;fill-opacity:1" /><g
     id="g52"
     transform="matrix(1.0640819,0,0,1.0640819,-0.27917426,-391.58215)"
     style="fill:#b3b3b3;fill-opacity:1" /><g
     id="g54"
     transform="matrix(1.0640819,0,0,1.0640819,-0.27917426,-391.58215)"
     style="fill:#b3b3b3;fill-opacity:1" /></svg>