<?xml version="1.0" encoding="UTF-8" standalone="no"?>
<!-- Created with Inkscape (http://www.inkscape.org/) -->

<svg
   xmlns:dc="http://purl.org/dc/elements/1.1/"
   xmlns:cc="http://creativecommons.org/ns#"
   xmlns:rdf="http://www.w3.org/1999/02/22-rdf-syntax-ns#"
   xmlns:svg="http://www.w3.org/2000/svg"
   xmlns="http://www.w3.org/2000/svg"
   xmlns:sodipodi="http://sodipodi.sourceforge.net/DTD/sodipodi-0.dtd"
   xmlns:inkscape="http://www.inkscape.org/namespaces/inkscape"
   sodipodi:docname="rotate.svg"
   height="16.03805"
   id="svg7384"
   inkscape:version="0.92.2 (5c3e80d, 2017-08-06)"
   version="1.1"
   width="10.027918">
  <metadata
     id="metadata90">
    <rdf:RDF>
      <cc:Work
         rdf:about="">
        <dc:format>image/svg+xml</dc:format>
        <dc:type
           rdf:resource="http://purl.org/dc/dcmitype/StillImage" />
        <dc:title>Gnome Symbolic Icon Theme</dc:title>
      </cc:Work>
    </rdf:RDF>
  </metadata>
  <sodipodi:namedview
     inkscape:bbox-nodes="true"
     inkscape:bbox-paths="true"
     bordercolor="#666666"
     borderopacity="1"
     inkscape:current-layer="layer9"
     inkscape:cx="-16.131786"
     inkscape:cy="4.8471822"
     gridtolerance="10"
     inkscape:guide-bbox="true"
     guidetolerance="10"
     id="namedview88"
     inkscape:object-nodes="false"
     inkscape:object-paths="false"
     objecttolerance="10"
     pagecolor="#433342"
     inkscape:pageopacity="1"
     inkscape:pageshadow="2"
     showborder="false"
     showgrid="false"
     showguides="true"
     inkscape:snap-bbox="true"
     inkscape:snap-bbox-midpoints="false"
     inkscape:snap-global="true"
     inkscape:snap-grids="true"
     inkscape:snap-nodes="true"
     inkscape:snap-others="false"
     inkscape:snap-page="false"
     inkscape:snap-to-guides="true"
     inkscape:window-height="715"
     inkscape:window-maximized="1"
     inkscape:window-width="1366"
     inkscape:window-x="0"
     inkscape:window-y="28"
     inkscape:zoom="5.6568543">
    <inkscape:grid
       empspacing="2"
       enabled="true"
       id="grid4866"
       originx="88.697278"
       originy="-28.44959"
       snapvisiblegridlinesonly="true"
       spacingx="1"
       spacingy="1"
       type="xygrid"
       visible="true" />
  </sodipodi:namedview>
  <title
     id="title9167">Gnome Symbolic Icon Theme</title>
  <defs
     id="defs7386" />
  <g
     inkscape:groupmode="layer"
     id="layer9"
     inkscape:label="tools"
     style="display:inline"
     transform="translate(-152.30292,-188.51236)">
    <path
       inkscape:connector-curvature="0"
       d="m 152.31591,188.51251 v 5.00207 c 0.98526,-0.005 2.11601,0.018 3.00125,0 h 2.00083 l -1.81325,-1.81325 v -0.0314 c 0.37095,-0.72915 1.25583,-1.2818 2.37598,-1.2818 1.49354,0 2.56357,1.00507 2.56357,2.06336 -0.0892,0.54204 0.38858,1.10475 0.93789,1.10475 0.54932,0 1.02704,-0.56271 0.93789,-1.10475 0,-2.25678 -2.06528,-3.93913 -4.43935,-3.93913 -1.54052,0 -2.95099,0.6992 -3.75155,1.81325 z"
       id="path18623"
       sodipodi:nodetypes="ccccccscscscc"
       style="fill:#b3b3b3;fill-opacity:1;stroke:none;stroke-width:0.50118607" />
    <path
       inkscape:connector-curvature="0"
       d="m 153.09749,199.51707 a 0.9504894,0.9504894 0 0 0 -0.78158,1.09421 c 0,2.25678 2.06529,3.93913 4.43935,3.93913 1.54051,0 2.951,-0.6992 3.75155,-1.81325 l 1.81326,1.81325 v -5.00208 h -1.75073 -0.0937 a 0.9504894,0.9504894 0 0 0 -0.46895,0 h -0.68779 -2.00083 l 1.81326,1.81327 c -0.004,0.009 0.004,0.0226 0,0.0314 -0.37095,0.72914 -1.25584,1.28177 -2.37599,1.28177 -1.49354,0 -2.56356,-1.00505 -2.56356,-2.06334 a 0.9504894,0.9504894 0 0 0 -1.09426,-1.09426 z"
       id="rect10846"
       style="fill:#b3b3b3;fill-opacity:1;stroke:none;stroke-width:0.50118607" />
    <rect
       height="2.0008302"
       id="rect18625"
       rx="0.4698649"
       ry="0.51407743"
       style="fill:#b3b3b3;fill-opacity:1;stroke:none;stroke-width:0.50118607"
       width="4.0016603"
       x="155.31715"
       y="195.51541" />
  </g>
  <g
     inkscape:groupmode="layer"
     id="layer10"
     inkscape:label="preferences"
     transform="translate(88.697278,28.48764)" />
  <g
     inkscape:groupmode="layer"
     id="layer1"
     inkscape:label="stock"
     transform="translate(88.697278,28.48764)" />
</svg>
