<?xml version="1.0" encoding="UTF-8" standalone="no"?>
<!-- Created with Inkscape (http://www.inkscape.org/) -->

<svg
   xmlns:dc="http://purl.org/dc/elements/1.1/"
   xmlns:cc="http://creativecommons.org/ns#"
   xmlns:rdf="http://www.w3.org/1999/02/22-rdf-syntax-ns#"
   xmlns:svg="http://www.w3.org/2000/svg"
   xmlns="http://www.w3.org/2000/svg"
   xmlns:sodipodi="http://sodipodi.sourceforge.net/DTD/sodipodi-0.dtd"
   xmlns:inkscape="http://www.inkscape.org/namespaces/inkscape"
   sodipodi:docname="smudge.svg"
   height="16"
   id="svg7384"
   inkscape:version="0.92.2 (5c3e80d, 2017-08-06)"
   version="1.1"
   width="15.916764">
  <metadata
     id="metadata90">
    <rdf:RDF>
      <cc:Work
         rdf:about="">
        <dc:format>image/svg+xml</dc:format>
        <dc:type
           rdf:resource="http://purl.org/dc/dcmitype/StillImage" />
        <dc:title>Gnome Symbolic Icon Theme</dc:title>
      </cc:Work>
    </rdf:RDF>
  </metadata>
  <sodipodi:namedview
     inkscape:bbox-nodes="true"
     inkscape:bbox-paths="true"
     bordercolor="#666666"
     borderopacity="1"
     inkscape:current-layer="layer9"
     inkscape:cx="-5.39567"
     inkscape:cy="19.932946"
     gridtolerance="10"
     inkscape:guide-bbox="true"
     guidetolerance="10"
     id="namedview88"
     inkscape:object-nodes="false"
     inkscape:object-paths="false"
     objecttolerance="10"
     pagecolor="#433342"
     inkscape:pageopacity="1"
     inkscape:pageshadow="2"
     showborder="false"
     showgrid="false"
     showguides="true"
     inkscape:snap-bbox="true"
     inkscape:snap-bbox-midpoints="false"
     inkscape:snap-global="true"
     inkscape:snap-grids="true"
     inkscape:snap-nodes="true"
     inkscape:snap-others="false"
     inkscape:snap-page="false"
     inkscape:snap-to-guides="true"
     inkscape:window-height="715"
     inkscape:window-maximized="1"
     inkscape:window-width="1366"
     inkscape:window-x="0"
     inkscape:window-y="28"
     inkscape:zoom="4">
    <inkscape:grid
       empspacing="2"
       enabled="true"
       id="grid4866"
       originx="100"
       originy="-8.7806551e-06"
       snapvisiblegridlinesonly="true"
       spacingx="1"
       spacingy="1"
       type="xygrid"
       visible="true" />
  </sodipodi:namedview>
  <title
     id="title9167">Gnome Symbolic Icon Theme</title>
  <defs
     id="defs7386" />
  <g
     inkscape:groupmode="layer"
     id="layer9"
     inkscape:label="tools"
     style="display:inline"
     transform="translate(-141.0002,-216.99999)">
    <g
       id="g12900"
       style="fill:#b3b3b3;fill-opacity:1"
       transform="matrix(0.16758903,0,0,-0.16758903,50.205285,249.67508)">
      <path
         inkscape:connector-curvature="0"
         d="m 591.02643,194.97151 c -15.23997,-1e-5 -27.83544,-5.51449 -38.09985,-14.61154 -5.04435,-4.47065 -5.53963,-12.57301 0,-14.61153 v 0 0 c -2.55481,-2.36345 -3.22875,-5.93593 -1.47905,-9.4527 l 1.47905,-2.16889 c 1.94332,-2.00411 5.00063,-2.76163 5.00063,-2.76163 v 0 c -2.5548,-2.84775 -2.24637,-7.12882 0.71438,-9.58881 l 1.19062,-1.14153 c 2.96074,-2.46 7.44639,-2.16284 10.0012,0.68492 0,0 -0.50323,-0.5819 0,0 l -25.47925,-28.30984 c -8.39074,-7.503 5.62719,-19.245454 14.0493,-10.27373 l 34.05171,36.07221 6.19122,6.39254 c 8.24578,8.63789 24.74698,-11.25858 7.61992,-15.98136 0,0 -7.07916,-0.51711 -14.52551,-0.22831 -5.88688,0.22831 -10.4278,-16.39785 9.28683,-14.38322 29.71831,-0.40817 35.71853,29.22306 35.71857,43.60629 -4e-5,29.45136 -22.85992,36.75712 -45.71977,36.75713 z"
         id="path12902"
         sodipodi:nodetypes="csccccccccccccccccsccc"
         style="fill:#b3b3b3;fill-opacity:1;fill-rule:nonzero;stroke:none" />
    </g>
  </g>
  <g
     inkscape:groupmode="layer"
     id="layer10"
     inkscape:label="preferences"
     transform="translate(100,8.4885353e-6)" />
  <g
     inkscape:groupmode="layer"
     id="layer1"
     inkscape:label="stock"
     transform="translate(100,8.4885353e-6)" />
</svg>
