<?xml version="1.0" encoding="UTF-8" standalone="no"?>
<!-- Generator: Adobe Illustrator 16.0.0, SVG Export Plug-In . SVG Version: 6.00 Build 0)  -->

<svg
   xmlns:dc="http://purl.org/dc/elements/1.1/"
   xmlns:cc="http://creativecommons.org/ns#"
   xmlns:rdf="http://www.w3.org/1999/02/22-rdf-syntax-ns#"
   xmlns:svg="http://www.w3.org/2000/svg"
   xmlns="http://www.w3.org/2000/svg"
   xmlns:sodipodi="http://sodipodi.sourceforge.net/DTD/sodipodi-0.dtd"
   xmlns:inkscape="http://www.inkscape.org/namespaces/inkscape"
   version="1.1"
   id="Capa_1"
   x="0px"
   y="0px"
   width="16.315401"
   height="16.592001"
   viewBox="0 0 16.315401 16.592001"
   xml:space="preserve"
   sodipodi:docname="tool-preset.svg"
   inkscape:version="0.92.2 (5c3e80d, 2017-08-06)"><metadata
     id="metadata43"><rdf:RDF><cc:Work
         rdf:about=""><dc:format>image/svg+xml</dc:format><dc:type
           rdf:resource="http://purl.org/dc/dcmitype/StillImage" /></cc:Work></rdf:RDF></metadata><defs
     id="defs41" /><sodipodi:namedview
     pagecolor="#ffffff"
     bordercolor="#666666"
     borderopacity="1"
     objecttolerance="10"
     gridtolerance="10"
     guidetolerance="10"
     inkscape:pageopacity="0"
     inkscape:pageshadow="2"
     inkscape:window-width="1366"
     inkscape:window-height="715"
     id="namedview39"
     showgrid="false"
     inkscape:zoom="16.553634"
     inkscape:cx="1.9405412"
     inkscape:cy="5.5159875"
     inkscape:window-x="0"
     inkscape:window-y="28"
     inkscape:window-maximized="1"
     inkscape:current-layer="Capa_1" /><g
     id="g6"
     style="fill:#b3b3b3;fill-opacity:1"
     transform="matrix(0.05143339,0,0,0.05143339,-0.74897303,0)"><g
       id="g4"
       style="fill:#b3b3b3;fill-opacity:1"><path
         d="m 16.081,94.36 27.403,53.628 H 21.832 v 144.044 c 0,16.849 16.076,30.56 35.835,30.56 h 181.19 c 19.76,0 35.833,-13.711 35.833,-30.56 v -8.822 c 18.984,-3.201 57.08618,-18.04293 57.08618,-35.04493 v -48.6 c 0,-17.002 -38.10118,-30.59407 -57.08618,-33.79007 V 147.988 H 236.88 L 306.722,38.912 245.939,0 167.043,123.24 169.1,88.994 C 180.274,84.409 188.174,73.425 188.174,60.61 V 16.39 h -53.207 l -5.687,9.002 -8.058,-9.002 H 90.687 v 44.22 c 0,12.809 7.894,23.794 19.074,28.384 l 3.542,58.994 h -3.462 L 68.531,67.162 14.562,32.574 Z m 110.051,-3.072 h 26.602 l -3.404,56.7 H 129.534 Z M 106.893,60.61 V 32.59 h 7.095 l 17.534,19.591 12.376,-19.591 h 28.076 v 28.02 c 0,7.986 -6.497,14.478 -14.479,14.478 h -36.12 c -7.986,0 -14.482,-6.491 -14.482,-14.478 z m 87.747,49.563 13.047,8.348 c 3.765,2.402 8.774,1.308 11.185,-2.458 2.415,-3.762 1.313,-8.775 -2.452,-11.188 l -13.047,-8.351 15.768,-24.622 14.112,9.039 c 3.765,2.402 8.774,1.308 11.19,-2.458 2.415,-3.763 1.308,-8.775 -2.458,-11.188 l -14.117,-9.036 22.977,-35.88 33.481,21.437 -66.683,104.171 H 191.37 c -0.479,-0.535 -1.002,-1.031 -1.646,-1.442 l -13.03,-8.342 z m 63.85,63.017 v 102.6 16.242 c 0,7.784 -8.985,14.359 -19.633,14.359 H 135.464 134.011 57.667 c -10.645,0 -19.636,-6.575 -19.636,-14.359 V 164.188 h 13.732 9.094 9.099 29.975 9.099 5.25 3.845 4.271 8.115 10.326 7.533 2.083 6.027 3.591 4.52 42.683 9.63 9.613 31.983 v 9.002 z M 61.678,147.988 55.308,135.514 34.717,95.22 58.482,83.075 91.66,147.988 Z M 31.891,78.469 31.503,62.675 45.386,71.569 Z m 283.68518,121.09607 v 48.6 c 0,8.29 -30.95018,15.89693 -40.88618,18.43393 v -84.217 c 9.936,2.536 40.88618,8.89307 40.88618,17.18307 z"
         id="path2"
         style="fill:#b3b3b3;fill-opacity:1"
         inkscape:connector-curvature="0"
         sodipodi:nodetypes="cccsssscsscccccccscccccscccccccccccscccccsssscccccccccccccccccccssccssccccccccccccccccccccccccccccccccssccs" /></g></g><g
     id="g8"
     transform="matrix(1.0641354,0,0,1.0641354,-15.49594,-326.68957)"
     style="fill:#b3b3b3;fill-opacity:1" /><g
     id="g10"
     transform="matrix(1.0641354,0,0,1.0641354,-15.49594,-326.68957)"
     style="fill:#b3b3b3;fill-opacity:1" /><g
     id="g12"
     transform="matrix(1.0641354,0,0,1.0641354,-15.49594,-326.68957)"
     style="fill:#b3b3b3;fill-opacity:1" /><g
     id="g14"
     transform="matrix(1.0641354,0,0,1.0641354,-15.49594,-326.68957)"
     style="fill:#b3b3b3;fill-opacity:1" /><g
     id="g16"
     transform="matrix(1.0641354,0,0,1.0641354,-15.49594,-326.68957)"
     style="fill:#b3b3b3;fill-opacity:1" /><g
     id="g18"
     transform="matrix(1.0641354,0,0,1.0641354,-15.49594,-326.68957)"
     style="fill:#b3b3b3;fill-opacity:1" /><g
     id="g20"
     transform="matrix(1.0641354,0,0,1.0641354,-15.49594,-326.68957)"
     style="fill:#b3b3b3;fill-opacity:1" /><g
     id="g22"
     transform="matrix(1.0641354,0,0,1.0641354,-15.49594,-326.68957)"
     style="fill:#b3b3b3;fill-opacity:1" /><g
     id="g24"
     transform="matrix(1.0641354,0,0,1.0641354,-15.49594,-326.68957)"
     style="fill:#b3b3b3;fill-opacity:1" /><g
     id="g26"
     transform="matrix(1.0641354,0,0,1.0641354,-15.49594,-326.68957)"
     style="fill:#b3b3b3;fill-opacity:1" /><g
     id="g28"
     transform="matrix(1.0641354,0,0,1.0641354,-15.49594,-326.68957)"
     style="fill:#b3b3b3;fill-opacity:1" /><g
     id="g30"
     transform="matrix(1.0641354,0,0,1.0641354,-15.49594,-326.68957)"
     style="fill:#b3b3b3;fill-opacity:1" /><g
     id="g32"
     transform="matrix(1.0641354,0,0,1.0641354,-15.49594,-326.68957)"
     style="fill:#b3b3b3;fill-opacity:1" /><g
     id="g34"
     transform="matrix(1.0641354,0,0,1.0641354,-15.49594,-326.68957)"
     style="fill:#b3b3b3;fill-opacity:1" /><g
     id="g36"
     transform="matrix(1.0641354,0,0,1.0641354,-15.49594,-326.68957)"
     style="fill:#b3b3b3;fill-opacity:1" /><rect
     style="opacity:1;fill:#b3b3b3;fill-opacity:1;stroke:#ffffff;stroke-width:0;stroke-linecap:round;stroke-miterlimit:4;stroke-dasharray:none;stroke-opacity:1;paint-order:markers fill stroke"
     id="rect829"
     width="11.988984"
     height="7.7140913"
     x="0.79803658"
     y="8.170783" /></svg>