<?xml version="1.0" encoding="UTF-8" standalone="no"?>
<!-- Generator: Adobe Illustrator 16.0.0, SVG Export Plug-In . SVG Version: 6.00 Build 0)  -->

<svg
   xmlns:dc="http://purl.org/dc/elements/1.1/"
   xmlns:cc="http://creativecommons.org/ns#"
   xmlns:rdf="http://www.w3.org/1999/02/22-rdf-syntax-ns#"
   xmlns:svg="http://www.w3.org/2000/svg"
   xmlns="http://www.w3.org/2000/svg"
   xmlns:sodipodi="http://sodipodi.sourceforge.net/DTD/sodipodi-0.dtd"
   xmlns:inkscape="http://www.inkscape.org/namespaces/inkscape"
   version="1.1"
   id="Layer_1"
   x="0px"
   y="0px"
   width="26.232393"
   height="26.226492"
   viewBox="0 0 26.232394 26.226492"
   enable-background="new 0 0 512 512"
   xml:space="preserve"
   sodipodi:docname="gimp-paths.svg"
   inkscape:version="0.92.2 (5c3e80d, 2017-08-06)"><metadata
     id="metadata11"><rdf:RDF><cc:Work
         rdf:about=""><dc:format>image/svg+xml</dc:format><dc:type
           rdf:resource="http://purl.org/dc/dcmitype/StillImage" /><dc:title /></cc:Work></rdf:RDF></metadata><defs
     id="defs9" /><sodipodi:namedview
     pagecolor="#343434"
     bordercolor="#666666"
     borderopacity="1"
     objecttolerance="10"
     gridtolerance="10"
     guidetolerance="10"
     inkscape:pageopacity="0"
     inkscape:pageshadow="2"
     inkscape:window-width="640"
     inkscape:window-height="480"
     id="namedview7"
     showgrid="false"
     inkscape:zoom="11.269514"
     inkscape:cx="-3.3928929"
     inkscape:cy="12.389314"
     inkscape:current-layer="Layer_1" /><path
     style="fill:#b3b3b3;fill-opacity:1;stroke-width:0.04256403"
     d="M 12.067369,1.942878e-6 C 11.834011,-4.7805712e-4 11.600543,0.08798194 11.422838,0.26562694 c -0.31889,0.31889 -0.35282,0.81451186 -0.09961,1.16992186 l -2.8613276,2.859375 c -0.3064201,0.14037 -0.605445,0.3001863 -0.890625,0.4726563 L 6.6083844,3.8046894 4.0341657,6.3789082 4.946275,7.2890644 c -0.2518,0.37741 -0.4876012,0.7884288 -0.6757812,1.1992188 L 1.4365094,11.320314 c -0.35541,-0.25326 -0.8510719,-0.21929 -1.1699219,0.09961 -0.35545,0.35541 -0.35545,0.93169 0,1.28711 0.35546,0.35541 0.9395519,0.361459 1.2949219,0.0059 0.31884,-0.31885 0.3384757,-0.825009 0.1035157,-1.162109 l 2.328125,-2.3281255 c -1.04967,2.8802295 -0.4214144,6.2552595 1.7910156,8.6191395 l -0.8339844,0.835938 2.5742188,2.574219 0.8632812,-0.863282 c 2.3826697,2.249884 5.7323607,2.848922 8.6484377,1.820313 l -2.355469,2.353516 c -0.33711,-0.234951 -0.845212,-0.213412 -1.164062,0.105468 -0.35545,0.35546 -0.350934,0.935646 0.0039,1.291016 0.35541,0.35545 0.933652,0.357243 1.289062,0.002 0.31889,-0.31889 0.35282,-0.812559 0.09961,-1.167969 l 2.859375,-2.861328 c 0.30642,-0.14037 0.605445,-0.298233 0.890625,-0.470703 l 0.964844,0.962891 2.574219,-2.574219 -0.912109,-0.910156 c 0.251799,-0.37741 0.487601,-0.788429 0.675781,-1.199219 l 2.832027,-2.834031 c 0.35541,0.253259 0.853025,0.221243 1.171875,-0.09766 0.35545,-0.35541 0.35545,-0.931689 0,-1.287109 -0.35546,-0.35541 -0.939552,-0.363413 -1.294922,-0.0078 -0.31884,0.31885 -0.340429,0.826962 -0.105469,1.164062 l -2.326172,2.328122 c 1.049671,-2.88023 0.419462,-6.25526 -1.792968,-8.6191404 L 21.282212,7.5507832 18.707993,4.9765644 17.846665,5.8378926 C 15.463925,3.5871425 12.112806,2.9907631 9.1962751,4.0195332 L 11.551744,1.6640644 c 0.33711,0.23495 0.845212,0.2134112 1.164062,-0.1054688 0.35545,-0.3554599 0.350934,-0.93564556 -0.0039,-1.29101556 C 12.534195,0.08985504 12.300726,4.8194288e-4 12.067369,1.942878e-6 Z M 11.68065,4.4921894 c 1.965705,-0.091177 3.964344,0.5799125 5.496093,2.015625 l -1.042968,1.0429688 2.574218,2.5742188 1.013672,-1.013672 c 2.339539,2.521859 2.636867,6.265737 0.847657,9.109375 l -0.945313,-0.945313 -2.574219,2.574219 0.898438,0.898437 C 15.152442,22.35635 11.508392,22.014973 9.0576032,19.718752 L 10.098619,18.677736 7.5244001,16.103517 6.5087751,17.117189 C 4.168305,14.595319 3.8736019,10.851864 5.6630719,8.0078144 L 6.6083844,8.9531269 9.1826032,6.3789082 8.2841657,5.4804707 C 9.3327405,4.8772682 10.501227,4.5468957 11.68065,4.4921894 Z m 7.027343,1.171875 1.859376,1.8574219 v 0.00195 L 18.68065,9.4101582 16.821275,7.5507832 17.764634,6.6074238 Z M 7.5517438,16.818361 9.4111188,18.677736 7.5244001,20.564455 5.665025,18.70508 Z"
     id="path4"
     inkscape:connector-curvature="0" /></svg>