<?xml version="1.0" encoding="UTF-8" standalone="no"?>
<!-- Created with Inkscape (http://www.inkscape.org/) -->

<svg
   xmlns:dc="http://purl.org/dc/elements/1.1/"
   xmlns:cc="http://creativecommons.org/ns#"
   xmlns:rdf="http://www.w3.org/1999/02/22-rdf-syntax-ns#"
   xmlns:svg="http://www.w3.org/2000/svg"
   xmlns="http://www.w3.org/2000/svg"
   xmlns:sodipodi="http://sodipodi.sourceforge.net/DTD/sodipodi-0.dtd"
   xmlns:inkscape="http://www.inkscape.org/namespaces/inkscape"
   width="4.5154848mm"
   height="4.51548mm"
   viewBox="0 0 4.5154848 4.51548"
   version="1.1"
   id="svg8"
   inkscape:version="0.92.2 (5c3e80d, 2017-08-06)"
   sodipodi:docname="gimp-refresh.svg">
  <defs
     id="defs2" />
  <sodipodi:namedview
     id="base"
     pagecolor="#757575"
     bordercolor="#666666"
     borderopacity="1.0"
     inkscape:pageopacity="0"
     inkscape:pageshadow="2"
     inkscape:zoom="11.2"
     inkscape:cx="-8.9589621"
     inkscape:cy="2.2944102"
     inkscape:document-units="mm"
     inkscape:current-layer="layer1"
     showgrid="false"
     inkscape:window-width="1366"
     inkscape:window-height="715"
     inkscape:window-x="0"
     inkscape:window-y="28"
     inkscape:window-maximized="1" />
  <metadata
     id="metadata5">
    <rdf:RDF>
      <cc:Work
         rdf:about="">
        <dc:format>image/svg+xml</dc:format>
        <dc:type
           rdf:resource="http://purl.org/dc/dcmitype/StillImage" />
        <dc:title></dc:title>
      </cc:Work>
    </rdf:RDF>
  </metadata>
  <g
     inkscape:label="Layer 1"
     inkscape:groupmode="layer"
     id="layer1"
     transform="translate(-43.247199,-146.57555)">
    <path
       style="opacity:1;fill:#b3b3b3;fill-opacity:1;stroke:none;stroke-width:0.34799999;stroke-linecap:butt;stroke-linejoin:miter;stroke-miterlimit:4;stroke-dasharray:none;stroke-dashoffset:16.85669327;stroke-opacity:1;paint-order:markers stroke fill"
       d="m 45.504942,146.57555 a 2.2577778,2.2577778 0 0 0 -1.203545,0.35243 l 0.443386,0.44338 1.115693,1.1157 v -1.26297 a 1.6497962,1.6497962 0 0 1 1.293979,1.6092 1.6497962,1.6497962 0 0 1 -0.188619,0.75913 l 0.443384,0.44338 a 2.2577778,2.2577778 0 0 0 0.353464,-1.20251 2.2577778,2.2577778 0 0 0 -2.257742,-2.25774 z m -1.904275,1.05523 a 2.2577778,2.2577778 0 0 0 -0.353468,1.20251 2.2577778,2.2577778 0 0 0 2.257743,2.25774 2.2577778,2.2577778 0 0 0 1.203544,-0.35243 l -0.442867,-0.44286 -1.116211,-1.11622 v 1.26349 a 1.6497962,1.6497962 0 0 1 -1.294495,-1.60972 1.6497962,1.6497962 0 0 1 0.188619,-0.75964 z"
       id="path826"
       inkscape:connector-curvature="0" />
  </g>
</svg>
