<?xml version="1.0" encoding="UTF-8" standalone="no"?>
<!-- Created with Inkscape (http://www.inkscape.org/) -->

<svg
   xmlns:dc="http://purl.org/dc/elements/1.1/"
   xmlns:cc="http://creativecommons.org/ns#"
   xmlns:rdf="http://www.w3.org/1999/02/22-rdf-syntax-ns#"
   xmlns:svg="http://www.w3.org/2000/svg"
   xmlns="http://www.w3.org/2000/svg"
   xmlns:sodipodi="http://sodipodi.sourceforge.net/DTD/sodipodi-0.dtd"
   xmlns:inkscape="http://www.inkscape.org/namespaces/inkscape"
   width="5.644444mm"
   height="5.644444mm"
   viewBox="0 0 5.6444441 5.6444443"
   version="1.1"
   id="svg8"
   inkscape:version="0.92.2 (5c3e80d, 2017-08-06)"
   sodipodi:docname="gimp-sample-point.svg">
  <defs
     id="defs2" />
  <sodipodi:namedview
     id="base"
     pagecolor="#494949"
     bordercolor="#666666"
     borderopacity="1.0"
     inkscape:pageopacity="0"
     inkscape:pageshadow="2"
     inkscape:zoom="16"
     inkscape:cx="9.312197"
     inkscape:cy="6.1525948"
     inkscape:document-units="mm"
     inkscape:current-layer="layer1"
     showgrid="false" />
  <metadata
     id="metadata5">
    <rdf:RDF>
      <cc:Work
         rdf:about="">
        <dc:format>image/svg+xml</dc:format>
        <dc:type
           rdf:resource="http://purl.org/dc/dcmitype/StillImage" />
        <dc:title></dc:title>
      </cc:Work>
    </rdf:RDF>
  </metadata>
  <g
     inkscape:label="Layer 1"
     inkscape:groupmode="layer"
     id="layer1"
     transform="translate(37.366951,-149.76869)">
    <g
       id="g1678">
      <path
         id="path1637"
         transform="matrix(0.26458333,0,0,0.26458333,-37.366951,149.76869)"
         d="M 9.5332031 0.78125 C 9.0970261 0.78125 8.7460938 1.1321823 8.7460938 1.5683594 L 8.7460938 6.203125 A 3.7586786 3.7586786 0 0 0 6.1816406 8.8183594 L 1.7402344 8.8183594 C 1.3040573 8.8183594 0.953125 9.1692917 0.953125 9.6054688 L 0.953125 10.173828 C 0.953125 10.610005 1.3040573 10.960938 1.7402344 10.960938 L 6.2324219 10.960938 A 3.7586786 3.7586786 0 0 0 8.7460938 13.410156 L 8.7460938 17.697266 C 8.7460938 18.133443 9.0970261 18.484375 9.5332031 18.484375 L 10.101562 18.484375 C 10.53774 18.484375 10.888672 18.133443 10.888672 17.697266 L 10.888672 12.972656 C 10.888672 12.536479 10.53774 12.185547 10.101562 12.185547 L 9.5332031 12.185547 C 9.435903 12.185547 9.345649 12.210194 9.2597656 12.242188 L 9.203125 12.191406 A 2.4644207 2.4644207 0 0 1 7.34375 9.8046875 A 2.4644207 2.4644207 0 0 1 9.8085938 7.3417969 A 2.4644207 2.4644207 0 0 1 12.248047 9.4785156 C 12.246952 9.4955805 12.238281 9.509993 12.238281 9.5273438 L 12.238281 10.095703 C 12.238281 10.53188 12.591167 10.882812 13.027344 10.882812 L 17.75 10.882812 C 18.186177 10.882812 18.537109 10.53188 18.537109 10.095703 L 18.537109 9.5273438 C 18.537109 9.0911667 18.186177 8.7402344 17.75 8.7402344 L 13.410156 8.7402344 A 3.7586786 3.7586786 0 0 0 10.888672 6.2089844 L 10.888672 1.5683594 C 10.888672 1.1321823 10.53774 0.78125 10.101562 0.78125 L 9.5332031 0.78125 z "
         style="opacity:1;fill:#b3b3b3;fill-opacity:1;stroke:none;stroke-width:1.0196569;stroke-linecap:round;stroke-linejoin:round;stroke-miterlimit:4;stroke-dasharray:none;stroke-dashoffset:0;stroke-opacity:1;paint-order:fill markers stroke" />
      <text
         id="text1673"
         y="155.10365"
         x="-33.905544"
         style="font-style:normal;font-variant:normal;font-weight:bold;font-stretch:normal;font-size:2.58150029px;line-height:0px;font-family:sans-serif;-inkscape-font-specification:'sans-serif, Bold';font-variant-ligatures:normal;font-variant-caps:normal;font-variant-numeric:normal;font-feature-settings:normal;text-align:start;letter-spacing:0.03000995px;word-spacing:-0.10648688px;writing-mode:lr-tb;text-anchor:start;fill:#b3b3b3;stroke-width:0.09680626"
         xml:space="preserve"><tspan
           style="font-style:normal;font-variant:normal;font-weight:bold;font-stretch:normal;font-size:2.58150029px;font-family:sans-serif;-inkscape-font-specification:'sans-serif, Bold';font-variant-ligatures:normal;font-variant-caps:normal;font-variant-numeric:normal;font-feature-settings:normal;text-align:start;writing-mode:lr-tb;text-anchor:start;fill:#b3b3b3;stroke-width:0.09680626"
           y="155.10365"
           x="-33.905544"
           id="tspan1671"
           sodipodi:role="line">1</tspan></text>
    </g>
  </g>
</svg>
