<?xml version="1.0" encoding="UTF-8" standalone="no"?>
<!-- Created with Inkscape (http://www.inkscape.org/) -->

<svg
   xmlns:dc="http://purl.org/dc/elements/1.1/"
   xmlns:cc="http://creativecommons.org/ns#"
   xmlns:rdf="http://www.w3.org/1999/02/22-rdf-syntax-ns#"
   xmlns:svg="http://www.w3.org/2000/svg"
   xmlns="http://www.w3.org/2000/svg"
   xmlns:sodipodi="http://sodipodi.sourceforge.net/DTD/sodipodi-0.dtd"
   xmlns:inkscape="http://www.inkscape.org/namespaces/inkscape"
   width="5.5500202mm"
   height="4.831593mm"
   viewBox="0 0 5.5500202 4.831593"
   version="1.1"
   id="svg8"
   inkscape:version="0.92.2 (5c3e80d, 2017-08-06)"
   sodipodi:docname="gimp-tool-seamless-clone-16.svg">
  <defs
     id="defs2" />
  <sodipodi:namedview
     id="base"
     pagecolor="#ffffff"
     bordercolor="#666666"
     borderopacity="1.0"
     inkscape:pageopacity="0.0"
     inkscape:pageshadow="2"
     inkscape:zoom="11.2"
     inkscape:cx="-1.2887676"
     inkscape:cy="9.1661205"
     inkscape:document-units="mm"
     inkscape:current-layer="layer1"
     showgrid="false"
     inkscape:window-width="1366"
     inkscape:window-height="715"
     inkscape:window-x="0"
     inkscape:window-y="28"
     inkscape:window-maximized="1" />
  <metadata
     id="metadata5">
    <rdf:RDF>
      <cc:Work
         rdf:about="">
        <dc:format>image/svg+xml</dc:format>
        <dc:type
           rdf:resource="http://purl.org/dc/dcmitype/StillImage" />
        <dc:title></dc:title>
      </cc:Work>
    </rdf:RDF>
  </metadata>
  <g
     inkscape:label="Layer 1"
     inkscape:groupmode="layer"
     id="layer1"
     transform="translate(-34.664042,-145.98462)">
    <g
       id="g875"
       transform="matrix(0.79112252,0,0,0.79112252,5.4466601,30.885371)">
      <path
         inkscape:connector-curvature="0"
         id="path837"
         d="m 39.246655,145.48853 a 1.1103051,1.1103051 0 0 0 -1.110009,1.11001 1.1103051,1.1103051 0 0 0 0.709518,1.03404 v 0.56173 h -1.065567 c -0.470337,0 -0.849046,0.37871 -0.849046,0.84904 v 1.11156 h 4.488617 v -1.11156 c 0,-0.47033 -0.378706,-0.84904 -0.849045,-0.84904 h -0.990119 v -0.53796 a 1.1103051,1.1103051 0 0 0 0.776179,-1.05781 1.1103051,1.1103051 0 0 0 -1.110528,-1.11001 z"
         style="opacity:1;fill:#9e9e9e;fill-opacity:1;stroke:none;stroke-width:0.45433334;stroke-linecap:butt;stroke-linejoin:miter;stroke-miterlimit:4;stroke-dasharray:none;stroke-dashoffset:16.85669327;stroke-opacity:1;paint-order:markers stroke fill" />
      <rect
         ry="0.25891736"
         y="149.16655"
         x="38.286358"
         height="0.51783472"
         width="1.7706606"
         id="rect847"
         style="opacity:1;fill:#676767;fill-opacity:1;stroke:none;stroke-width:0.34799999;stroke-linecap:butt;stroke-linejoin:miter;stroke-miterlimit:4;stroke-dasharray:none;stroke-dashoffset:16.85669327;stroke-opacity:1;paint-order:markers stroke fill" />
      <g
         transform="translate(-2.968973,-0.17943726)"
         id="g866">
        <path
           inkscape:connector-curvature="0"
           id="path862"
           d="m 44.742385,147.10885 a 1.1103051,1.1103051 0 0 0 -1.110009,1.11001 1.1103051,1.1103051 0 0 0 0.709518,1.03404 v 0.56173 h -1.065567 c -0.470337,0 -0.849046,0.37871 -0.849046,0.84904 v 1.11156 h 4.488617 v -1.11156 c 0,-0.47033 -0.378706,-0.84904 -0.849045,-0.84904 h -0.990119 v -0.53796 a 1.1103051,1.1103051 0 0 0 0.776179,-1.05781 1.1103051,1.1103051 0 0 0 -1.110528,-1.11001 z"
           style="opacity:1;fill:#b3b3b3;fill-opacity:1;stroke:none;stroke-width:0.45433334;stroke-linecap:butt;stroke-linejoin:miter;stroke-miterlimit:4;stroke-dasharray:none;stroke-dashoffset:16.85669327;stroke-opacity:1;paint-order:markers stroke fill" />
        <rect
           ry="0.25891736"
           y="150.78687"
           x="43.782089"
           height="0.51783472"
           width="1.7706606"
           id="rect864"
           style="opacity:1;fill:#767676;fill-opacity:1;stroke:none;stroke-width:0.34799999;stroke-linecap:butt;stroke-linejoin:miter;stroke-miterlimit:4;stroke-dasharray:none;stroke-dashoffset:16.85669327;stroke-opacity:1;paint-order:markers stroke fill" />
      </g>
    </g>
  </g>
</svg>
