<?xml version="1.0" encoding="UTF-8" standalone="no"?>
<!-- Created with Inkscape (http://www.inkscape.org/) -->

<svg
   xmlns:dc="http://purl.org/dc/elements/1.1/"
   xmlns:cc="http://creativecommons.org/ns#"
   xmlns:rdf="http://www.w3.org/1999/02/22-rdf-syntax-ns#"
   xmlns:svg="http://www.w3.org/2000/svg"
   xmlns="http://www.w3.org/2000/svg"
   xmlns:sodipodi="http://sodipodi.sourceforge.net/DTD/sodipodi-0.dtd"
   xmlns:inkscape="http://www.inkscape.org/namespaces/inkscape"
   width="6.6383562mm"
   height="7.08744mm"
   viewBox="0 0 6.6383562 7.08744"
   version="1.1"
   id="svg867"
   inkscape:version="0.92.2 (5c3e80d, 2017-08-06)"
   sodipodi:docname="gimp-anchor.svg">
  <defs
     id="defs861" />
  <sodipodi:namedview
     id="base"
     pagecolor="#4b4b4b"
     bordercolor="#666666"
     borderopacity="1.0"
     inkscape:pageopacity="0"
     inkscape:pageshadow="2"
     inkscape:zoom="11.2"
     inkscape:cx="11.37581"
     inkscape:cy="17.985577"
     inkscape:document-units="mm"
     inkscape:current-layer="layer1"
     showgrid="false"
     inkscape:window-width="1366"
     inkscape:window-height="715"
     inkscape:window-x="0"
     inkscape:window-y="28"
     inkscape:window-maximized="1" />
  <metadata
     id="metadata864">
    <rdf:RDF>
      <cc:Work
         rdf:about="">
        <dc:format>image/svg+xml</dc:format>
        <dc:type
           rdf:resource="http://purl.org/dc/dcmitype/StillImage" />
        <dc:title></dc:title>
      </cc:Work>
    </rdf:RDF>
  </metadata>
  <g
     inkscape:label="Layer 1"
     inkscape:groupmode="layer"
     id="layer1"
     transform="translate(-37.15988,-145.17146)">
    <path
       style="opacity:1;fill:#b3b3b3;fill-opacity:1;stroke:none;stroke-width:0.29828566;stroke-linecap:butt;stroke-linejoin:miter;stroke-miterlimit:4;stroke-dasharray:none;stroke-dashoffset:16.85669327;stroke-opacity:1;paint-order:markers stroke fill"
       d="m 40.490922,145.1715 a 1.1339285,1.1339285 0 0 0 -1.134298,1.1343 1.1339285,1.1339285 0 0 0 0.550352,0.97048 c -0.0028,0.0228 -0.0067,0.0452 -0.0067,0.0687 v 3.5357 a 3.3191032,3.3545385 0 0 1 -2.673736,-2.64531 3.3191032,3.3545385 0 0 0 -0.06666,0.66869 3.3191032,3.3545385 0 0 0 3.319176,3.35484 3.3191032,3.3545385 0 0 0 3.31918,-3.35484 3.3191032,3.3545385 0 0 0 -0.06718,-0.65319 3.3191032,3.3545385 0 0 1 -2.696993,2.63757 v -3.54346 c 0,-0.0147 -0.0031,-0.0285 -0.0041,-0.0429 a 1.1339285,1.1339285 0 0 0 0.594794,-0.99632 1.1339285,1.1339285 0 0 0 -1.133779,-1.1343 z"
       id="path1425"
       inkscape:connector-curvature="0" />
  </g>
</svg>
