<?xml version="1.0" encoding="UTF-8" standalone="no"?>
<svg
   xmlns:dc="http://purl.org/dc/elements/1.1/"
   xmlns:cc="http://creativecommons.org/ns#"
   xmlns:rdf="http://www.w3.org/1999/02/22-rdf-syntax-ns#"
   xmlns:svg="http://www.w3.org/2000/svg"
   xmlns="http://www.w3.org/2000/svg"
   xmlns:sodipodi="http://sodipodi.sourceforge.net/DTD/sodipodi-0.dtd"
   xmlns:inkscape="http://www.inkscape.org/namespaces/inkscape"
   enable-background="new 0 0 24 24"
   id="Layer_1"
   version="1.0"
   viewBox="0 0 24 24"
   xml:space="preserve"
   sodipodi:docname="gimp-web.svg"
   inkscape:version="0.92.2 (5c3e80d, 2017-08-06)"><metadata
     id="metadata11"><rdf:RDF><cc:Work
         rdf:about=""><dc:format>image/svg+xml</dc:format><dc:type
           rdf:resource="http://purl.org/dc/dcmitype/StillImage" /><dc:title /></cc:Work></rdf:RDF></metadata><defs
     id="defs9" /><sodipodi:namedview
     pagecolor="#ffffff"
     bordercolor="#666666"
     borderopacity="1"
     objecttolerance="10"
     gridtolerance="10"
     guidetolerance="10"
     inkscape:pageopacity="0"
     inkscape:pageshadow="2"
     inkscape:window-width="640"
     inkscape:window-height="480"
     id="namedview7"
     showgrid="false"
     inkscape:zoom="15.202796"
     inkscape:cx="7.6887983"
     inkscape:cy="12.559062"
     inkscape:current-layer="Layer_1" /><path
     d="M 23.422709,12 C 23.422709,18.359034 18.241274,23.422709 12,23.422709 5.7587258,23.422709 0.57729057,18.359034 0.57729057,12 0.57729057,5.6409659 5.6409659,0.57729057 12,0.57729057 18.359034,0.57729057 23.422709,5.6409659 23.422709,12 Z M 11.88224,17.416955 c 0,-0.23552 -0.11776,-0.35328 -0.35328,-0.47104 -0.706559,-0.235519 -1.413118,-0.235519 -2.0019177,-0.824319 -0.1177599,-0.23552 -0.1177599,-0.471039 -0.2355198,-0.706559 -0.2355198,-0.23552 -0.8243192,-0.35328 -1.1775989,-0.47104 -0.4710396,0 -0.9420791,0 -1.5308786,0 -0.2355198,0 -0.5887994,0 -0.8243192,0 -0.3532797,-0.11776 -0.5887995,-0.588799 -0.8243193,-0.942079 0,-0.11776 0,-0.35328 -0.2355197,-0.35328 -0.2355198,-0.117759 -0.4710396,0.11776 -0.7065594,0 -0.1177599,-0.117759 -0.1177599,-0.235519 -0.1177599,-0.353279 0,-0.35328 0.2355198,-0.70656 0.4710396,-0.942079 0.3532797,-0.23552 0.7065593,0.11776 1.059839,0.11776 0.1177599,0 0.1177599,0 0.2355198,0.117759 0.3532797,0.11776 0.4710395,0.5888 0.4710395,0.94208 0,0.117759 0,0.235519 0,0.235519 0,0.11776 0.1177599,0.11776 0.2355198,0.11776 0.1177599,-0.588799 0.1177599,-1.177599 0.2355198,-1.766398 0,-0.706559 0.7065594,-1.413119 1.2953588,-1.648639 0.2355198,-0.117759 0.3532797,0.11776 0.5887995,0 C 9.1737626,10.233602 10.940161,9.5270423 10.586881,8.5849632 10.351362,7.7606439 9.6448022,6.9363247 8.7027231,7.0540846 8.4672033,7.1718445 8.3494434,7.2896044 8.1139236,7.4073643 7.7606439,7.642884 7.0540846,8.3494434 6.7008049,8.3494434 6.1120054,8.2316835 6.1120054,7.4073643 6.2297653,7.0540846 6.3475252,6.583045 7.4073643,5.0521664 8.1139236,5.2876862 c 0.1177599,0.1177599 0.3532797,0.3532797 0.4710396,0.4710396 0.2355197,0.1177599 0.5887994,0.1177599 0.9420791,0.1177599 0.1177599,0 0.2355198,0 0.3532797,-0.1177599 C 9.9980819,5.6409659 9.9980819,5.6409659 9.9980819,5.523206 9.9980819,5.1699263 9.6448022,4.8166466 9.4092824,4.5811269 9.1737626,4.3456071 8.8204829,4.1100873 8.4672033,3.9923274 7.2896044,3.6390477 5.4054461,4.1100873 4.463367,4.9344065 3.5212878,5.7587258 2.8147285,7.1718445 2.3436889,8.3494434 2.1081692,9.0560027 1.8726494,9.9980819 1.7548895,10.822401 c -0.1177599,0.5888 -0.2355198,1.059839 0.1177599,1.648639 0.3532796,0.706559 1.059839,1.413118 1.7663983,1.884158 0.4710396,0.353279 1.4131187,0.353279 1.8841583,0.942079 0.3532797,0.47104 0.2355198,1.059839 0.2355198,1.648638 0,0.70656 0.4710395,1.295359 0.7065593,1.884159 0.1177599,0.353279 0.2355198,0.824319 0.3532797,1.177599 0,0.117759 0.1177599,0.824319 0.1177599,0.942079 0.7065593,0.353279 1.2953588,0.706559 2.119678,0.942079 0.1177599,0 0.5887995,-0.70656 0.5887995,-0.824319 0.3532797,-0.35328 0.5887998,-0.82432 0.9420788,-1.059839 0.23552,-0.11776 0.47104,-0.23552 0.70656,-0.47104 0.235519,-0.23552 0.353279,-0.706559 0.471039,-1.059839 0.11776,-0.23552 0.23552,-0.706559 0.11776,-1.059839 z m 0.23552,-10.83391 c 0.11776,0 0.23552,-0.1177599 0.471039,-0.2355198 0.35328,-0.2355198 0.70656,-0.5887994 1.059839,-0.8243192 0.35328,-0.2355198 0.70656,-0.5887995 0.94208,-0.8243192 0.353279,-0.2355198 0.588799,-0.7065594 0.706559,-1.0598391 0.11776,-0.2355197 0.47104,-0.7065593 0.35328,-1.059839 C 15.532797,2.3436889 14.943997,2.225929 14.708477,2.1081692 13.766398,1.8726494 12.942079,1.7548895 12,1.7548895 c -0.35328,0 -0.824319,0.1177599 -0.942079,0.4710395 -0.11776,0.5887995 0.35328,0.4710396 0.824319,0.5887995 0,0 0.11776,0.9420791 0.11776,1.059839 0.11776,0.5887995 -0.23552,0.9420791 -0.23552,1.5308786 0,0.3532797 0,0.9420791 0.23552,1.1775989 0,0 0.11776,0 0.11776,0 z m 9.891831,8.243192 c 0.11776,-0.235519 0.11776,-0.588799 0.23552,-0.824319 0.117759,-0.588799 0.117759,-1.177599 0.117759,-1.766398 0,-1.177599 -0.117759,-2.355198 -0.471039,-3.4150371 -0.23552,-0.3532796 -0.35328,-0.7065593 -0.47104,-1.059839 C 21.185271,7.1718445 20.831992,6.583045 20.360952,6.1120054 19.889913,5.523206 19.301113,3.8745675 18.241274,4.3456071 17.887995,4.463367 17.652475,4.9344065 17.416955,5.1699263 c -0.23552,0.3532797 -0.47104,0.7065594 -0.706559,1.059839 -0.11776,0.1177599 -0.23552,0.3532797 -0.11776,0.4710396 0,0.1177599 0.11776,0.1177599 0.23552,0.1177599 0.235519,0.1177599 0.353279,0.1177599 0.588799,0.2355198 0.11776,0 0.23552,0.1177599 0.11776,0.2355198 0,0 0,0.1177599 -0.11776,0.1177599 -0.588799,0.5887994 -1.177599,1.059839 -1.766398,1.6486384 -0.11776,0.1177599 -0.23552,0.3532797 -0.23552,0.4710396 0,0.1177599 0.11776,0.1177599 0.11776,0.2355198 0,0.1177599 -0.11776,0.1177599 -0.23552,0.2355198 -0.23552,0.1177601 -0.47104,0.2355201 -0.5888,0.3532801 -0.117759,0.235519 0,0.588799 -0.117759,0.824319 -0.11776,0.588799 -0.47104,1.059839 -0.70656,1.648638 -0.23552,0.35328 -0.353279,0.70656 -0.588799,1.059839 0,0.47104 -0.11776,0.824319 0.11776,1.177599 0.588799,0.824319 1.648638,0.35328 2.472957,0.70656 0.23552,0.117759 0.47104,0.117759 0.5888,0.353279 0.35328,0.35328 0.35328,0.942079 0.471039,1.295359 0.11776,0.47104 0.23552,0.942079 0.47104,1.413119 0.11776,0.588799 0.35328,1.177599 0.47104,1.648638 1.059839,-0.824319 2.001918,-1.766398 2.708477,-2.943997 0.706559,-0.824319 1.059839,-1.766398 1.413119,-2.708478 z"
     id="path2"
     style="fill:#b3b3b3;fill-opacity:1;stroke-width:1.17759895"
     inkscape:connector-curvature="0" /><path
     d="M 12,0.2240109 C 5.523206,0.2240109 0.2240109,5.523206 0.2240109,12 0.2240109,18.476794 5.523206,23.775989 12,23.775989 18.476794,23.775989 23.775989,18.476794 23.775989,12 23.775989,5.523206 18.476794,0.2240109 12,0.2240109 Z M 12,21.891831 C 6.583045,21.891831 2.1081692,17.416955 2.1081692,12 2.1081692,6.583045 6.583045,2.1081692 12,2.1081692 c 5.416955,0 9.891831,4.4748758 9.891831,9.8918308 0,5.416955 -4.474876,9.891831 -9.891831,9.891831 z"
     id="path4"
     style="fill:#b3b3b3;fill-opacity:1;stroke-width:1.17759895"
     inkscape:connector-curvature="0" /></svg>